<?xml version="1.0" encoding="utf-8" ?>
<svg xmlns="http://www.w3.org/2000/svg" xmlns:xlink="http://www.w3.org/1999/xlink" width="1024" height="1024">
	<g>
		<path fill="white" d="M522.876 208.07C538.825 208.068 555.018 210.174 570.624 213.367Q573.681 214 576.724 214.695Q579.768 215.389 582.797 216.144Q585.826 216.899 588.839 217.714Q591.852 218.53 594.849 219.406Q597.845 220.281 600.823 221.217Q603.801 222.152 606.76 223.147Q609.719 224.142 612.658 225.196Q615.596 226.25 618.513 227.362Q621.43 228.475 624.323 229.645Q627.217 230.816 630.087 232.044Q632.957 233.272 635.802 234.558Q638.646 235.843 641.465 237.186Q644.283 238.528 647.074 239.926Q649.865 241.324 652.628 242.778Q655.39 244.232 658.123 245.741Q660.856 247.25 663.558 248.813Q666.26 250.376 668.93 251.993Q671.601 253.61 674.238 255.28Q676.875 256.95 679.479 258.673Q682.082 260.395 684.651 262.17Q687.219 263.944 689.751 265.769Q692.284 267.594 694.779 269.47Q697.274 271.346 699.732 273.271Q702.189 275.196 704.607 277.17Q707.026 279.144 709.404 281.166Q711.782 283.188 714.12 285.257Q716.457 287.327 718.753 289.442Q721.048 291.558 723.301 293.719Q725.554 295.88 727.763 298.085Q729.972 300.291 732.136 302.541Q734.3 304.79 736.419 307.082Q738.538 309.375 740.611 311.709C747.3 319.357 753.917 327.022 759.526 335.513L693.384 335.517C690.344 330.008 687.186 324.754 683.026 320.004Q682.08 318.93 681.082 317.904Q680.083 316.878 679.036 315.903Q677.989 314.927 676.895 314.004Q675.8 313.081 674.662 312.213Q673.524 311.345 672.344 310.534Q671.165 309.723 669.947 308.971Q668.729 308.22 667.475 307.529Q666.222 306.837 664.936 306.209Q663.65 305.58 662.334 305.016Q661.019 304.451 659.677 303.952Q658.336 303.453 656.971 303.021Q655.607 302.588 654.223 302.224Q652.839 301.859 651.438 301.563Q650.038 301.266 648.625 301.039Q647.211 300.812 645.789 300.655Q644.366 300.498 642.937 300.411Q641.497 300.337 640.056 300.334Q638.614 300.331 637.174 300.4Q635.734 300.468 634.299 300.607Q632.864 300.747 631.438 300.957Q630.012 301.167 628.598 301.448Q627.184 301.729 625.785 302.079Q624.387 302.429 623.007 302.847Q621.628 303.266 620.271 303.753Q618.914 304.239 617.582 304.792Q616.251 305.345 614.948 305.963Q613.646 306.581 612.376 307.263Q611.106 307.944 609.871 308.688Q608.635 309.432 607.439 310.235Q606.242 311.039 605.086 311.901Q603.931 312.763 602.819 313.681Q601.708 314.599 600.643 315.571C589.872 325.367 582.706 339.162 582.148 353.832Q582.088 355.261 582.099 356.692Q582.11 358.122 582.192 359.55Q582.274 360.979 582.426 362.401Q582.579 363.823 582.802 365.236Q583.025 366.65 583.318 368.05Q583.61 369.45 583.972 370.834Q584.334 372.218 584.764 373.582Q585.194 374.947 585.691 376.288Q586.188 377.63 586.752 378.945Q587.315 380.26 587.942 381.545Q588.57 382.831 589.26 384.084Q589.951 385.336 590.703 386.553Q591.455 387.77 592.266 388.949Q593.077 390.127 593.946 391.263Q594.815 392.4 595.739 393.492Q596.663 394.584 597.64 395.629Q598.61 396.659 599.629 397.641Q600.649 398.622 601.715 399.553Q602.782 400.483 603.893 401.36Q605.003 402.236 606.156 403.057Q607.309 403.879 608.5 404.642Q609.692 405.406 610.919 406.11Q612.147 406.814 613.407 407.456Q614.668 408.099 615.959 408.68Q617.25 409.26 618.567 409.776Q619.885 410.292 621.227 410.742Q622.568 411.193 623.93 411.577Q625.292 411.962 626.671 412.279Q628.05 412.595 629.443 412.844Q630.837 413.093 632.24 413.273Q633.644 413.453 635.055 413.564Q636.465 413.675 637.88 413.716C660.03 414.233 680.099 402.982 690.383 383.175C694.168 375.884 695.224 369.097 701.577 363.182C705.396 359.626 709.801 356.604 714.898 355.249C721.623 353.46 729.572 354.459 736.484 354.482C748.331 354.521 760.134 354.521 771.974 355.004C793.205 386.731 803.976 417.587 812.189 454.558C782.756 455.178 753.24 454.83 723.799 454.866C710.354 454.882 696.366 454.026 682.988 455.264C676.251 455.887 669.541 457.517 663.179 459.796C651.922 463.827 642.142 469.186 629.764 468.416C616.788 467.609 609.257 459.917 598.925 453.277C586.105 445.038 573.357 442.839 558.4 443.506C572.021 447.64 583.567 454.938 592.537 466.1Q593.543 467.326 594.486 468.601Q595.429 469.875 596.307 471.196Q597.185 472.516 597.996 473.878Q598.808 475.241 599.55 476.642Q600.292 478.043 600.963 479.48Q601.634 480.916 602.233 482.385Q602.832 483.853 603.356 485.349Q603.881 486.846 604.33 488.366Q604.78 489.887 605.152 491.428Q605.525 492.97 605.82 494.527Q606.116 496.085 606.333 497.656Q606.55 499.227 606.688 500.806Q606.827 502.386 606.886 503.971Q606.946 505.555 606.926 507.141Q606.906 508.726 606.807 510.309Q606.708 511.891 606.53 513.467C604.668 530.135 596.42 546.686 583.104 557.119C568.987 568.179 553.996 571.202 536.431 569.038C553.275 577.5 574.428 579.159 591.553 570.711C604.256 564.444 611.74 557.654 626.782 556.714C641.565 555.789 652.295 562.295 665.61 567.178C672.47 569.694 679.34 571.155 686.623 571.636C699.751 573.077 714.427 571.959 727.711 571.949L810.828 572.077C806.198 598.83 788.75 648.39 772.247 669.812C752.095 668.861 710.146 674.628 696.689 656.866C694.791 654.36 693.883 650.732 692.867 647.794C689.076 636.825 682.232 627.751 672.834 620.925C660.983 612.317 645.337 608.895 630.93 611.27C615.669 613.786 601.615 621.72 592.57 634.346C583.433 647.102 579.549 661.893 582.166 677.452C584.728 692.682 593.013 705.149 605.646 714.014Q606.846 714.848 608.084 715.622Q609.323 716.396 610.599 717.109Q611.874 717.822 613.182 718.472Q614.491 719.122 615.829 719.707Q617.168 720.293 618.533 720.812Q619.899 721.331 621.288 721.783Q622.678 722.235 624.087 722.619Q625.497 723.002 626.924 723.317Q628.351 723.631 629.791 723.875Q631.231 724.12 632.682 724.293Q634.133 724.467 635.59 724.57Q637.047 724.672 638.508 724.704Q639.969 724.735 641.429 724.696Q642.889 724.656 644.346 724.545Q645.803 724.434 647.252 724.252Q648.702 724.07 650.141 723.817Q651.318 723.601 652.486 723.334Q653.653 723.067 654.807 722.75Q655.961 722.433 657.101 722.067Q658.241 721.7 659.364 721.285Q660.487 720.87 661.591 720.406Q662.694 719.943 663.777 719.433Q664.86 718.922 665.92 718.366Q666.98 717.809 668.015 717.207Q669.05 716.606 670.058 715.96Q671.066 715.314 672.045 714.625Q673.024 713.936 673.973 713.206Q674.922 712.476 675.838 711.705Q676.754 710.935 677.636 710.125Q678.518 709.316 679.365 708.47Q680.211 707.623 681.02 706.741Q681.83 705.858 682.6 704.942C685.739 701.144 688.307 696.83 691.108 692.775C712.769 687.705 737.457 692.163 759.53 689.978C753.309 699.458 744.886 708.559 737.227 716.953C680.35 779.29 607.165 813.705 522.949 817.515L523.192 400.367L523.031 270.948C522.993 250.013 522.379 228.995 522.876 208.07Z"/>
		<path fill="white" d="M498.554 208.213C499.647 208.102 500.314 208.007 501.332 208.463C502.83 217.423 501.95 227.802 501.965 236.908L502.01 287.109L501.934 432.118C497.008 433.823 492.13 435.559 487.454 437.89C468.985 447.102 456.435 462.496 450.036 481.999C443.755 501.146 445.087 522.979 454.323 541.017C464.479 560.855 480.922 574.055 501.993 580.766C501.588 605.56 502.027 630.437 502.014 655.24L501.964 817.501C495.96 817.417 490.003 817.118 484.012 816.717C483.3 783.704 483.774 750.666 483.436 717.643C475.838 726.6 467.472 733.752 457.022 739.199C434.784 750.791 414.255 751.02 390.767 743.673C414.747 743.298 439.457 733.408 456.528 716.432C470.779 702.26 480.961 682.969 483.232 662.863C484.316 653.266 483.955 643.501 483.953 633.859L483.944 593.291C478.042 590.023 472.133 586.794 466.706 582.761C444.793 566.479 432.341 543.226 428.473 516.515C421.521 516.422 414.615 516.354 407.723 517.436C386.63 520.746 366.497 533.644 353.667 550.602C343.695 563.783 341.744 569.934 326.522 579.023Q324.989 579.924 323.413 580.748Q321.838 581.572 320.224 582.318Q318.61 583.065 316.961 583.731Q315.312 584.397 313.633 584.982Q311.954 585.566 310.248 586.068Q308.542 586.569 306.813 586.987Q305.085 587.404 303.338 587.736Q301.591 588.069 299.83 588.315Q298.069 588.561 296.298 588.721Q294.527 588.88 292.75 588.953Q290.974 589.026 289.195 589.011Q287.417 588.997 285.642 588.896Q283.867 588.794 282.099 588.606Q280.331 588.417 278.574 588.142Q276.817 587.868 275.076 587.507Q273.334 587.146 271.613 586.701C263.672 596.61 259.892 608.584 259.918 621.202C259.952 637.087 266.354 651.412 277.575 662.555C292.256 677.134 309.106 681.534 329.276 681.478C332.562 674.729 335.863 668.034 340.237 661.907C352.596 644.593 370.81 631.803 392 628.348C409.451 625.501 429.472 629.059 444.013 639.439C428.52 636.017 412.944 636.142 397.746 641.065Q396.825 641.359 395.911 641.676Q394.998 641.993 394.092 642.332Q393.187 642.672 392.29 643.033Q391.394 643.395 390.506 643.779Q389.619 644.162 388.741 644.568Q387.863 644.974 386.996 645.401Q386.128 645.828 385.272 646.277Q384.415 646.725 383.57 647.195Q382.725 647.664 381.891 648.155Q381.058 648.645 380.237 649.156Q379.416 649.667 378.608 650.198Q377.8 650.729 377.005 651.28Q376.211 651.831 375.43 652.401Q374.649 652.971 373.883 653.561Q373.116 654.15 372.365 654.759Q371.613 655.367 370.877 655.994Q370.14 656.62 369.42 657.265Q368.699 657.91 367.995 658.572Q367.29 659.235 366.603 659.914Q365.915 660.594 365.244 661.29Q364.573 661.987 363.92 662.699Q363.267 663.412 362.631 664.141Q361.996 664.87 361.378 665.614Q360.761 666.358 360.162 667.118Q359.564 667.877 358.984 668.651Q358.404 669.425 357.844 670.213Q357.284 671.001 356.743 671.802Q356.202 672.604 355.682 673.419Q355.161 674.234 354.661 675.061Q354.161 675.888 353.681 676.728Q353.201 677.567 352.742 678.419Q352.284 679.27 351.846 680.132Q351.047 681.726 350.327 683.358Q349.607 684.989 348.967 686.654Q348.327 688.319 347.768 690.012Q347.21 691.706 346.735 693.425Q346.26 695.144 345.869 696.884Q345.478 698.624 345.172 700.381Q344.866 702.138 344.646 703.908Q344.426 705.677 344.293 707.456Q344.159 709.234 344.113 711.017Q344.066 712.8 344.106 714.583Q344.146 716.366 344.272 718.144Q344.399 719.923 344.612 721.694Q344.825 723.464 345.125 725.223Q345.424 726.981 345.808 728.722Q346.192 730.464 346.661 732.184Q347.129 733.905 347.681 735.601C357.063 764.26 382.879 784.643 408.976 797.77C382.784 791.289 354.518 773.159 332.758 757.562C280.943 718.684 240.426 664.921 220.921 602.843Q220.107 600.226 219.34 597.595Q218.573 594.965 217.853 592.32Q217.134 589.676 216.461 587.02Q215.789 584.363 215.165 581.695Q214.54 579.026 213.963 576.347Q213.387 573.668 212.858 570.979Q212.33 568.29 211.85 565.592Q211.37 562.894 210.938 560.188Q210.506 557.482 210.123 554.768Q209.74 552.055 209.405 549.335Q209.071 546.615 208.785 543.89Q208.499 541.164 208.263 538.434Q208.026 535.704 207.838 532.97Q207.65 530.236 207.511 527.499Q207.373 524.762 207.283 522.023Q207.193 519.284 207.153 516.544Q207.112 513.804 207.121 511.064Q207.129 508.323 207.187 505.583Q207.244 502.844 207.351 500.105Q207.458 497.367 207.614 494.631Q207.769 491.895 207.974 489.162Q208.179 486.43 208.433 483.701Q208.686 480.972 208.989 478.249Q209.292 475.525 209.643 472.807Q209.994 470.089 210.395 467.378Q210.795 464.667 211.243 461.964Q211.692 459.26 212.189 456.565Q212.686 453.87 213.231 451.185Q213.776 448.499 214.369 445.824Q214.962 443.148 215.603 440.484Q216.244 437.82 216.933 435.167Q217.622 432.515 218.358 429.875C224.634 407.934 233.548 387.093 244.129 366.907C273.196 311.448 323.905 265.171 380.139 238.257C388.903 234.062 397.864 229.631 407.154 226.725C389.61 238.22 373.238 248.951 360.575 266.293C347.71 283.91 341.384 304.034 344.802 325.787C347.846 345.16 359.35 362.21 375.203 373.577C396.042 388.519 419.885 392.159 444.783 387.941Q438.386 391.857 431.397 394.581Q429.727 395.246 428.026 395.827Q426.326 396.407 424.598 396.902Q422.87 397.397 421.119 397.804Q419.369 398.212 417.6 398.531Q415.832 398.85 414.049 399.08Q412.267 399.311 410.475 399.451Q408.683 399.592 406.887 399.643Q405.09 399.694 403.293 399.654Q401.496 399.615 399.704 399.486Q397.911 399.357 396.127 399.138Q394.343 398.919 392.573 398.611Q390.802 398.303 389.049 397.907Q387.296 397.511 385.565 397.027Q383.834 396.543 382.129 395.974Q380.425 395.404 378.751 394.75Q377.077 394.095 375.438 393.358C353.39 383.362 338.466 364.288 330.064 342.047C312.158 340.959 296.222 343.931 282.222 355.883C269.772 366.512 262.019 381.065 260.903 397.482C259.896 412.298 264.277 428.946 274.221 440.279Q278.669 438.943 283.246 438.159Q287.823 437.374 292.461 437.152Q293.376 437.113 294.292 437.101Q295.207 437.089 296.123 437.103Q297.039 437.117 297.954 437.157Q298.869 437.197 299.782 437.264Q300.695 437.33 301.606 437.423Q302.517 437.515 303.426 437.634Q304.334 437.752 305.238 437.897Q306.142 438.041 307.042 438.212Q307.942 438.382 308.836 438.578Q309.731 438.774 310.62 438.996Q311.508 439.217 312.39 439.464Q313.272 439.711 314.146 439.983Q315.021 440.255 315.887 440.552Q316.753 440.849 317.611 441.171Q318.468 441.493 319.316 441.839Q320.164 442.185 321.001 442.555Q321.839 442.926 322.666 443.32Q323.492 443.714 324.307 444.131Q325.122 444.549 325.925 444.99Q326.728 445.431 327.518 445.894Q328.307 446.358 329.084 446.844Q329.86 447.33 330.622 447.838Q331.384 448.346 332.131 448.875Q332.878 449.405 333.609 449.956Q334.341 450.507 335.057 451.078Q335.772 451.65 336.471 452.242Q337.17 452.834 337.851 453.445Q338.533 454.057 339.197 454.688Q339.861 455.318 340.506 455.968Q341.152 456.618 341.778 457.286Q342.405 457.953 343.012 458.639Q343.62 459.324 344.207 460.027C349.407 466.336 353.29 473.638 359.411 479.176C377.994 495.986 403.941 500.459 428.143 499.128C429.021 491.017 430.065 483.019 432.614 475.236C440.989 449.666 460.203 431.236 483.783 419.416Q484.005 402.832 484.005 386.312C484.049 358.984 482.429 339.916 464.161 317.976C445.856 295.99 417.145 283.297 389.024 280.735C398.416 278.099 406.826 276.197 416.651 276.317Q417.816 276.34 418.98 276.392Q420.145 276.444 421.307 276.525Q422.47 276.605 423.63 276.714Q424.79 276.823 425.948 276.961Q427.105 277.099 428.258 277.264Q429.412 277.43 430.561 277.625Q431.71 277.819 432.854 278.041Q433.998 278.264 435.136 278.514Q436.274 278.765 437.406 279.043Q438.538 279.321 439.662 279.627Q440.787 279.933 441.903 280.267Q443.02 280.601 444.128 280.962Q445.236 281.323 446.335 281.711Q447.434 282.099 448.523 282.514Q449.612 282.929 450.69 283.37Q451.769 283.812 452.836 284.28Q453.903 284.748 454.959 285.242Q456.014 285.736 457.057 286.256Q458.1 286.775 459.13 287.321Q460.16 287.866 461.177 288.437Q462.193 289.007 463.195 289.602Q464.197 290.197 465.184 290.817Q466.171 291.437 467.142 292.081Q468.114 292.724 469.069 293.392Q470.024 294.059 470.963 294.75Q471.902 295.441 472.823 296.154Q473.744 296.868 474.648 297.604Q475.552 298.34 476.437 299.098Q477.322 299.856 478.188 300.635Q479.055 301.415 479.902 302.215Q480.748 303.016 481.575 303.837Q482.402 304.658 483.209 305.499C484.052 273.543 482.374 241.46 483.46 209.497C488.478 208.922 493.518 208.586 498.554 208.213ZM305.258 569.22C321.516 563.889 333.731 554.321 341.603 538.915C343.84 534.536 345.268 530.158 346.555 525.433C352.617 522.015 358.064 517.264 361.458 511.109C356.943 505.248 352.326 501.151 345.757 497.707C343.249 484.434 334.414 471.717 323.355 464.103C312.772 456.818 298.474 452.485 285.582 453.7C268.836 455.295 254.338 462.313 243.593 475.451C233.732 487.509 229.212 503.679 230.835 519.139C232.478 534.799 240.596 548.671 252.82 558.486C265.303 568.509 281.104 572.602 296.946 570.777Q301.161 570.313 305.258 569.22Z"/>
		<path fill="white" d="M688.83 474.139C693.464 473.607 698.443 473.962 703.117 474.019L726.882 474.262C756.227 474.385 785.691 474.629 815.025 474.229C817.913 500.654 817.903 527.038 813.899 553.359C803.493 553.524 793.07 553.409 782.661 553.413L718.657 553.344C708.807 553.349 697.727 554.677 688.081 553.006C681.599 551.883 675.206 548.983 669.842 545.212C661.147 539.098 654.782 529.745 653.04 519.185C651.449 509.547 654.162 499.627 659.811 491.744C666.549 482.341 677.463 475.955 688.83 474.139Z"/>
	</g>
	<g/>
</svg>
